# xmcd CD database file
#
# Track frame offsets:
#	150
#	19761
#	37999
#	59916
#	83535
#	108606
#	127825
#	147180
#	166724
#	196936
#	220889
#	247945
#	273935
#	323239
#
# Disc length: 4699 seconds
#
# Revision: 3
# Processed by: cddbd v1.5.2PL0 Copyright (c) Steve Scherf et al.
# Submitted via: CDex 2.09
#
DISCID=bb12590e
DTITLE=Popa Chubby - The Good The Bad And The Chubby
DYEAR=2002
DGENRE=Blues
TTITLE0=Somebody Let The Devil Out
TTITLE1=If The Diesel Don't Get You Then The Jet Fuel Will
TTITLE2=I Can't See The Light Of Day
TTITLE3=I'll Be There For You
TTITLE4=Stress Will Kill You Every Time
TTITLE5=No Trouble No More
TTITLE6=Bad Connection 
TTITLE7=Strange Way Of Saying I Love You
TTITLE8=My Last Cigarette
TTITLE9=Already Stoned
TTITLE10=Dirty Lie
TTITLE11=Passion
TTITLE12=Play It From The Heart
TTITLE13=Bonus Track
EXTD=YEAR: 2002
EXTT0=
EXTT1=
EXTT2=
EXTT3=
EXTT4=
EXTT5=
EXTT6=
EXTT7=
EXTT8=
EXTT9=
EXTT10=
EXTT11=
EXTT12=
EXTT13=
PLAYORDER=
